<?xml version="1.0" encoding="UTF-8"?>
<svg id="Layer_1" data-name="Layer 1" xmlns="http://www.w3.org/2000/svg" viewBox="0 0 1794.63 1135.04">
  <defs>
    <style>
      .cls-1, .cls-2, .cls-3, .cls-4, .cls-5, .cls-6 {
        fill: #fff;
      }

      .cls-1, .cls-7, .cls-8 {
        stroke: #263238;
        stroke-miterlimit: 10;
      }

      .cls-9 {
        fill: #9bd2a5;
      }

      .cls-10 {
        fill: #012a32;
        font-family: Swiss721BT-BlackCondensed, 'Swis721 BlkCn BT';
        font-size: 518.09px;
        font-weight: 800;
      }

      .cls-7, .cls-11 {
        fill: #263238;
      }

      .cls-3 {
        opacity: .5;
      }

      .cls-4 {
        opacity: .8;
      }

      .cls-5 {
        opacity: .33;
      }

      .cls-8 {
        fill: none;
      }

      .cls-6 {
        opacity: .31;
      }
    </style>
  </defs>
  <g>
    <path class="cls-9" d="m1752.32,393.14c-20.41-73.51-156.5,6.45-156.5,6.45l35.61-64.6c4.23-6.4,8.03-13.19,11.28-20.46,17.88-39.99,17.65-82.77-.09-120.03-4.88-22.62-19.65-54.95-60.41-90.38C1505.1,37.09,1246.55-8.77,1171.7,1.42c-74.85,10.18,68.04,41.67,68.04,41.67l-11.32-.1c-217.99-23.11-437.33-26.09-654.95-21.58-54.57,1.13-109.31,2.92-162.74,12.14-15.37,2.65-31.91,6.7-41.06,19.11-40.62,55.09,125.56,60.47,151.62,59.41-114.14,14.84-240.97,19.39-347.12,63.5-14.81,6.16-29.48,13.45-40.64,24.84-11.16,11.39-18.43,27.54-15.92,43.78,7.3,47.14,72.25,61.11,109.07,71.58,0,0-211.69,140.76-186.74,212.21,10.31,29.54,25.68,60.63,54.17,91.24-16.24,20.38-30.53,41.77-41.58,64.39-6.76,13.83-15.62,32.78-8.05,48.71,38.56,81.15,623.29,359.7,1091.86,280.2,124.47-21.12,248.44-56.04,357.56-117.81,108.59-61.47,219.24-163,246.6-291.03.9-4.22,1.56-8.31,2.01-12.29,16.98-59.01,26.89-136.72,9.81-198.23Z"/>
    <path class="cls-4" d="m1752.32,393.14c-20.41-73.51-156.5,6.45-156.5,6.45l35.61-64.6c4.23-6.4,8.03-13.19,11.28-20.46,17.88-39.99,17.65-82.77-.09-120.03-4.88-22.62-19.65-54.95-60.41-90.38C1505.1,37.09,1246.55-8.77,1171.7,1.42c-74.85,10.18,68.04,41.67,68.04,41.67l-11.32-.1c-217.99-23.11-437.33-26.09-654.95-21.58-54.57,1.13-109.31,2.92-162.74,12.14-15.37,2.65-31.91,6.7-41.06,19.11-40.62,55.09,125.56,60.47,151.62,59.41-114.14,14.84-240.97,19.39-347.12,63.5-14.81,6.16-29.48,13.45-40.64,24.84-11.16,11.39-15.53,27.36-15.92,43.78-1.03,43.46,68.81,59.59,109.07,71.58,0,0-211.69,140.76-186.74,212.21,10.31,29.54,25.68,60.63,54.17,91.24-16.24,20.38-30.53,41.77-41.58,64.39-6.76,13.83-15.62,32.78-8.05,48.71,38.56,81.15,623.29,359.7,1091.86,280.2,124.47-21.12,248.44-56.04,357.56-117.81,108.59-61.47,219.24-163,246.6-291.03.9-4.22,1.56-8.31,2.01-12.29,16.98-59.01,26.89-136.72,9.81-198.23Z"/>
  </g>
  <g>
    <path class="cls-8" d="m1373.53,312.82s2.64-7.93,15.86-10.57c13.22-2.64,29.08,11.9,29.08,11.9,0,0,10.57-21.15,21.15-22.47,10.57-1.32,22.47,7.93,22.47,7.93"/>
    <path class="cls-8" d="m1339.17,363.04s2.64-7.93,15.86-10.57c13.22-2.64,29.08,11.9,29.08,11.9,0,0,10.57-21.15,21.15-22.47,10.57-1.32,22.47,7.93,22.47,7.93"/>
    <path class="cls-8" d="m1464.73,363.36s2.01-6.04,12.07-8.05c10.06-2.01,22.13,9.05,22.13,9.05,0,0,8.05-16.1,16.1-17.1,8.05-1.01,17.1,6.04,17.1,6.04"/>
    <path class="cls-8" d="m1611.59,416.57s1.32-3.96,7.92-5.28c6.6-1.32,14.51,5.94,14.51,5.94,0,0,5.28-10.56,10.56-11.22,5.28-.66,11.22,3.96,11.22,3.96"/>
  </g>
  <path class="cls-8" d="m907.72,298.81c-13.66-61.36-84.38-107.09-146.03-98.33-15.37,2.18-30.31,7.93-41.86,18.55-15.74,14.48-12.01,30.92-19.8,48.87-2.16,4.98-6.38,9.4-11.74,10.33-15.33,2.63-27.68-12.65-43.21-12.77-11.61-.08-26.45,6.33-32.92,16.35-6.03,9.33-1.83,25.62-12.68,31.82-12.13,6.93-26.89-6.25-40.01-1.48-16.3,5.93-8.89,17.78-14.82,25.19-5.93,7.41-17.78,4.45-34.08,2.96-16.3-1.48-29.64,17.78-29.64,17.78h514.23s4.45-7.41-14.82-37.05c-19.27-29.64-45.94-8.89-57.8-8.89s-14.81-13.32-14.82-13.34Z"/>
  <path class="cls-8" d="m1050.93,200.27c-5.48-24.62-33.85-42.96-58.59-39.45-6.16.88-12.16,3.18-16.79,7.44-6.32,5.81-4.82,12.41-7.94,19.61-.87,2-2.56,3.77-4.71,4.14-6.15,1.05-11.11-5.08-17.33-5.12-4.66-.03-10.61,2.54-13.21,6.56-2.42,3.74-.73,10.28-5.09,12.76-4.87,2.78-10.79-2.51-16.05-.59-6.54,2.38-3.57,7.13-5.95,10.11-2.38,2.97-7.13,1.78-13.67,1.19-6.54-.59-11.89,7.13-11.89,7.13h206.3s1.78-2.97-5.95-14.86c-7.73-11.89-18.43-3.57-23.19-3.57s-5.94-5.34-5.95-5.35Z"/>
  <path class="cls-8" d="m1491.05,501.94c-5.48-24.62-33.85-42.96-58.59-39.45-6.16.88-12.16,3.18-16.79,7.44-6.32,5.81-4.82,12.41-7.94,19.61-.87,2-2.56,3.77-4.71,4.14-6.15,1.05-11.11-5.08-17.33-5.12-4.66-.03-10.61,2.54-13.21,6.56-2.42,3.74-.73,10.28-5.09,12.76-4.87,2.78-10.79-2.51-16.05-.59-6.54,2.38-3.57,7.13-5.95,10.11-2.38,2.97-7.13,1.78-13.67,1.19-6.54-.59-11.89,7.13-11.89,7.13h206.3s1.78-2.97-5.95-14.86c-7.73-11.89-18.43-3.57-23.19-3.57s-5.94-5.34-5.95-5.35Z"/>
  <path class="cls-8" d="m1160.13,475c-8.39-37.7-51.85-65.81-89.74-60.42-9.44,1.34-18.63,4.87-25.72,11.4-9.67,8.9-7.38,19-12.17,30.03-1.33,3.06-3.92,5.78-7.21,6.35-9.42,1.62-17.01-7.78-26.55-7.85-7.13-.05-16.25,3.89-20.23,10.05-3.7,5.74-1.12,15.74-7.79,19.55-7.46,4.26-16.53-3.84-24.59-.91-10.02,3.64-5.46,10.93-9.11,15.48-3.64,4.55-10.93,2.73-20.94,1.82-10.02-.91-18.21,10.93-18.21,10.93h315.99s2.73-4.55-9.11-22.77c-11.84-18.21-28.23-5.46-35.51-5.46s-9.1-8.18-9.11-8.2Z"/>
  <path class="cls-11" d="m1234.45,909.41s-18.89-19.57-13.59-18.98c5.3.59,15.22,15.22,15.22,15.22,0,0,.14-32.26,4.85-25.19,4.71,7.07-1.08,25.33-1.08,25.33,0,0,13.47-21.02,13.44-17.58-.09,10.62-10.38,18.92-10.38,18.92,0,0,21.57-15.98,18.04-9.5-3.53,6.48-17.33,12.6-17.33,12.6,0,0,24.87-5.02,16.03-1.48-8.84,3.53-17.24,5.96-17.24,5.96h-6.87s-23.48-11.78-14.65-10.01c8.84,1.77,13.55,4.71,13.55,4.71Z"/>
  <path class="cls-11" d="m1483.88,848.18s-14.7-15.23-10.57-14.77c4.13.46,11.85,11.85,11.85,11.85,0,0,.11-25.11,3.77-19.6,3.67,5.5-.84,19.71-.84,19.71,0,0,10.48-16.36,10.46-13.68-.07,8.26-8.08,14.73-8.08,14.73,0,0,16.79-12.44,14.04-7.39-2.75,5.04-13.48,9.81-13.48,9.81,0,0,19.35-3.9,12.48-1.15-6.88,2.75-13.42,4.64-13.42,4.64h-5.35s-18.27-9.17-11.4-7.79c6.88,1.38,10.54,3.67,10.54,3.67Z"/>
  <path class="cls-11" d="m1715.46,793.55s-14.7-15.23-10.57-14.77c4.13.46,11.85,11.85,11.85,11.85,0,0,.11-25.11,3.77-19.6,3.67,5.5-.84,19.71-.84,19.71,0,0,10.48-16.35,10.46-13.68-.07,8.26-8.08,14.73-8.08,14.73,0,0,16.79-12.44,14.04-7.39-2.75,5.04-13.48,9.81-13.48,9.81,0,0,19.35-3.9,12.48-1.15-6.88,2.75-13.42,4.64-13.42,4.64h-5.35s-18.27-9.17-11.4-7.79c6.88,1.38,10.54,3.67,10.54,3.67Z"/>
  <path class="cls-9" d="m1420.32,918.33s-17.56-18.19-12.63-17.65c4.93.55,14.15,14.15,14.15,14.15,0,0,.13-29.99,4.51-23.42s-1,23.54-1,23.54c0,0,12.52-19.54,12.5-16.35-.09,9.87-9.65,17.59-9.65,17.59,0,0,20.05-14.85,16.77-8.83-3.29,6.02-16.11,11.72-16.11,11.72,0,0,23.12-4.66,14.9-1.38-8.21,3.29-16.03,5.54-16.03,5.54h-6.39s-21.83-10.95-13.61-9.31c8.21,1.64,12.59,4.38,12.59,4.38Z"/>
  <g>
    <polyline class="cls-8" points="1072.87 839.41 917.53 665.25 883.51 692.47 713.21 436.06 564.95 469.1 520.62 386.28 477.53 384.01 395.88 222.98 273.75 334.41 214.86 313.38 .36 532.09"/>
    <line class="cls-8" x1="1102" y1="872.06" x2="1085.71" y2="853.8"/>
    <line class="cls-8" x1="485.35" y1="490.39" x2="472.5" y2="493.87"/>
    <line class="cls-8" x1="564.65" y1="468.91" x2="499.8" y2="486.47"/>
    <polyline class="cls-8" points="320.01 394.36 356.32 340.76 353.87 322.38 395.55 237.79"/>
    <line class="cls-8" x1="304.83" y1="416.77" x2="313.94" y2="403.32"/>
    <line class="cls-8" x1="248.49" y1="448.47" x2="189.61" y2="528.32"/>
    <polyline class="cls-8" points="217.8 322.38 232.51 355.47 265.61 382.44 261.93 430.25 253.91 441.13"/>
    <polyline class="cls-8" points="520.62 386.28 489.94 415.54 478.9 397.15"/>
    <polyline class="cls-8" points="1759.63 713.93 1521.27 545.8 1448.91 647.95 1359.53 618.16 1221.19 811.83 1131.8 792.67 1087.11 830.98"/>
    <polyline class="cls-8" points="1521.27 545.8 1492.93 670.38 1459.51 655.76"/>
    <polyline class="cls-8" points="1360.29 625.47 1290.31 829.13 1242.27 820.78"/>
  </g>
  <g>
    <path class="cls-9" d="m1357.06,610.92c-62.03,0-112.31,49.94-112.31,111.55,0,28.56,10.81,54.61,28.59,74.35,8.13-1.18,22.96-1.99,39.34,3.58,21.71,7.39,35.24,19.49,38.2,22.31h10.06c2.96-2.83,16.49-14.93,38.2-22.31,17.84-6.07,33.83-4.57,41.35-3.27,17.95-19.77,28.88-45.95,28.88-74.67,0-61.61-50.28-111.55-112.31-111.55Z"/>
    <path class="cls-11" d="m1409.34,767.21c-3.46,1.67-6.88,3.4-10.26,5.2-3.38,1.85-6.7,3.86-9.81,6.06-1.18.81-2.32,1.65-3.47,2.49l18.4-34.27-25.24,39.53c-2.56,2.06-5.07,4.16-7.54,6.3-4.08,3.55-8.04,7.16-11.93,10.89l-1.28-37.18,26.41-40.22-26.61,34.59-1.15-33.28-1.9,37.24h0s0,.01,0,.01l-1.9,37.32c-3.37-3.19-6.8-6.31-10.32-9.38-2.77-2.41-5.59-4.77-8.48-7.06l-23.88-40.79,17.54,35.98c-1.01-.73-2.01-1.47-3.04-2.18-3.11-2.2-6.43-4.21-9.81-6.06-3.38-1.8-6.8-3.53-10.26-5.2-6.92-3.32-13.97-6.43-21.25-8.99,7.07,3,13.86,6.51,20.48,10.22,3.31,1.86,6.57,3.78,9.79,5.77,3.16,2,6.21,4.12,9.1,6.46,5.82,4.61,11.25,9.64,16.49,14.83,4.57,4.54,9.02,9.24,13.26,14l-2.41,47.37h11.07l-1.57-45.45c4.74-5.43,9.79-10.77,14.97-15.93,5.23-5.19,10.67-10.22,16.49-14.83,2.89-2.34,5.93-4.45,9.1-6.46,3.21-1.99,6.48-3.9,9.79-5.77,6.63-3.71,13.41-7.22,20.48-10.22-7.28,2.56-14.33,5.67-21.25,8.99Z"/>
  </g>
  <g>
    <path class="cls-9" d="m494.72,763.98c0,32.05-17.97,34.47-40.14,34.47s-40.14-2.42-40.14-34.47,17.97-99.05,40.14-99.05,40.14,67,40.14,99.05Z"/>
    <polygon class="cls-11" points="468.15 778.52 461.51 778.98 478.81 767.32 466.45 773.56 468.15 768.69 462.5 775.56 455.88 778.91 455.35 755.89 458.86 747.38 455.27 752.17 454.96 738.82 465.97 724.15 454.89 735.49 454.22 706.12 453.62 724.92 446.57 717.05 453.51 728.53 452.57 758.31 446.43 754.29 440.83 744.37 443.07 752.1 432.09 744.92 452.44 762.47 449.36 860.21 457.74 860.21 455.97 782.72 457.9 781.41 468.15 778.52"/>
  </g>
  <g>
    <path class="cls-9" d="m1574.44,653.6c0,62.63-35.12,67.36-78.44,67.36s-78.44-4.73-78.44-67.36,35.12-193.54,78.44-193.54,78.44,130.91,78.44,193.54Z"/>
    <path class="cls-6" d="m1574.44,653.6c0,62.63-35.12,67.36-78.44,67.36s-78.44-4.73-78.44-67.36,35.12-193.54,78.44-193.54,78.44,130.91,78.44,193.54Z"/>
    <polygon class="cls-11" points="1522.52 682.02 1509.55 682.91 1543.34 660.13 1519.21 672.33 1522.52 662.8 1511.49 676.23 1498.55 682.77 1497.52 637.8 1504.37 621.16 1497.35 630.52 1496.76 604.44 1518.25 575.78 1496.61 597.94 1495.3 540.55 1494.14 577.28 1480.35 561.9 1493.92 584.34 1492.08 642.52 1480.08 634.67 1469.14 615.29 1473.52 630.39 1452.05 616.35 1491.82 650.65 1485.8 841.64 1502.18 841.64 1498.72 690.21 1502.5 687.66 1522.52 682.02"/>
  </g>
  <g>
    <path class="cls-9" d="m1742.35,678.25c0,32.05-17.97,34.47-40.14,34.47s-40.14-2.42-40.14-34.47,17.97-99.05,40.14-99.05,40.14,67,40.14,99.05Z"/>
    <path class="cls-3" d="m1742.35,678.25c0,32.05-17.97,34.47-40.14,34.47s-40.14-2.42-40.14-34.47,17.97-99.05,40.14-99.05,40.14,67,40.14,99.05Z"/>
    <polygon class="cls-11" points="1715.78 692.79 1709.14 693.25 1726.44 681.59 1714.08 687.83 1715.78 682.96 1710.13 689.83 1703.51 693.18 1702.98 670.16 1706.49 661.65 1702.9 666.44 1702.59 653.09 1713.6 638.42 1702.52 649.76 1701.85 620.39 1701.25 639.19 1694.2 631.32 1701.14 642.8 1700.2 672.58 1694.06 668.56 1688.46 658.64 1690.7 666.37 1679.72 659.19 1700.07 676.74 1696.99 774.48 1705.37 774.48 1703.6 696.99 1705.53 695.68 1715.78 692.79"/>
  </g>
  <g>
    <path class="cls-9" d="m106.05,651.15c0,32.05-17.97,34.47-40.14,34.47s-40.14-2.42-40.14-34.47,17.97-99.05,40.14-99.05,40.14,67,40.14,99.05Z"/>
    <path class="cls-3" d="m106.05,651.15c0,32.05-17.97,34.47-40.14,34.47s-40.14-2.42-40.14-34.47,17.97-99.05,40.14-99.05,40.14,67,40.14,99.05Z"/>
    <polygon class="cls-11" points="79.48 665.69 72.84 666.15 90.13 654.49 77.78 660.73 79.48 655.85 73.83 662.73 67.21 666.08 66.68 643.06 70.19 634.54 66.59 639.33 66.29 625.99 77.29 611.32 66.21 622.66 65.54 593.29 64.95 612.09 57.89 604.22 64.84 615.7 63.9 645.48 57.75 641.46 52.16 631.54 54.4 639.27 43.41 632.09 63.77 649.64 60.68 747.38 69.06 747.38 67.29 669.89 69.23 668.58 79.48 665.69"/>
  </g>
  <g>
    <path class="cls-9" d="m304.98,578.46c-62.03,0-112.31,49.94-112.31,111.55,0,28.56,10.81,54.61,28.59,74.35,8.13-1.18,22.96-1.99,39.34,3.58,21.71,7.39,35.24,19.49,38.2,22.31h10.06c2.96-2.83,16.49-14.93,38.2-22.31,17.84-6.07,33.83-4.57,41.35-3.27,17.95-19.77,28.88-45.95,28.88-74.67,0-61.61-50.28-111.55-112.31-111.55Z"/>
    <path class="cls-5" d="m304.98,578.46c-62.03,0-112.31,49.94-112.31,111.55,0,28.56,10.81,54.61,28.59,74.35,8.13-1.18,22.96-1.99,39.34,3.58,21.71,7.39,35.24,19.49,38.2,22.31h10.06c2.96-2.83,16.49-14.93,38.2-22.31,17.84-6.07,33.83-4.57,41.35-3.27,17.95-19.77,28.88-45.95,28.88-74.67,0-61.61-50.28-111.55-112.31-111.55Z"/>
    <path class="cls-11" d="m357.26,734.76c-3.45,1.67-6.88,3.4-10.26,5.2-3.38,1.85-6.7,3.86-9.81,6.06-1.18.81-2.32,1.65-3.47,2.49l18.4-34.27-25.25,39.53c-2.56,2.06-5.07,4.16-7.54,6.3-4.08,3.55-8.04,7.16-11.93,10.89l-1.28-37.18,26.41-40.22-26.61,34.59-1.15-33.28-1.9,37.24h0s0,.01,0,.01l-1.9,37.32c-3.37-3.19-6.8-6.31-10.32-9.38-2.77-2.41-5.59-4.77-8.48-7.06l-23.88-40.79,17.54,35.98c-1.01-.73-2.01-1.47-3.04-2.18-3.11-2.2-6.43-4.21-9.81-6.06-3.38-1.8-6.8-3.53-10.26-5.2-6.92-3.32-13.97-6.43-21.25-8.99,7.07,3,13.86,6.51,20.48,10.22,3.31,1.86,6.57,3.78,9.79,5.77,3.16,2,6.21,4.12,9.1,6.46,5.82,4.61,11.25,9.64,16.49,14.83,4.57,4.54,9.02,9.24,13.26,14l-2.41,47.37h11.07l-1.57-45.45c4.74-5.43,9.79-10.77,14.97-15.93,5.23-5.19,10.67-10.22,16.49-14.83,2.89-2.34,5.93-4.45,9.1-6.46,3.21-1.99,6.48-3.9,9.79-5.77,6.63-3.71,13.41-7.22,20.48-10.22-7.28,2.56-14.33,5.67-21.25,8.99Z"/>
  </g>
  <g>
    <g>
      <path class="cls-1" d="m311.16,885.24s5.29-4.78,9.83-4.78,18.39,6.66,18.39,6.66c0,0,5.54,8.54,6.05,9.05s7.31,3.42,7.81,4.61c.5,1.2,1.51,5.12,1.51,5.12h-42.33l-7.81-20.49,6.55-.17Z"/>
      <path class="cls-11" d="m320.99,880.46l-.25,4.03s10.83,6.3,10.58,8.57c-.25,2.27-2.52,7.56-2.52,7.56l5.54,5.79h-29.48l2.27-17.38s6.3-9.07,13.86-8.57Z"/>
    </g>
    <g>
      <path class="cls-1" d="m255.99,882.73s21.16-31.74,25.95-32.25c4.79-.5,14.86,3.53,18.64,10.08,3.78,6.55,7.31,19.4,7.56,20.16.25.76,1.26,1.26,7.05,10.58,5.79,9.32,5.54,14.61,5.54,14.61h-81.88s1.76-8.31,4.79-13.1c3.02-4.79,10.08-6.55,10.08-6.55l2.27-3.53Z"/>
      <path class="cls-11" d="m288.49,905.4s-2.27-5.54-2.52-6.3c-.25-.76-.25-8.06-1.01-11.09-.76-3.02-7.05-12.35-7.05-12.35l4.53-13.1-2.27-1.76,3.78-9.32-2.12-.98c-4.96.89-25.85,32.22-25.85,32.22l-2.27,3.53s-7.05,1.76-10.08,6.55c-2.59,4.09-4.25,10.75-4.67,12.6h49.52Z"/>
    </g>
  </g>
  <g>
    <g>
      <path class="cls-1" d="m1127.13,893.14s3.32-3,6.16-3,11.53,4.18,11.53,4.18c0,0,3.48,5.35,3.79,5.68.32.32,4.58,2.14,4.9,2.89.32.75.95,3.21.95,3.21h-26.54l-4.9-12.85,4.11-.11Z"/>
      <path class="cls-11" d="m1133.29,890.14l-.16,2.53s6.79,3.95,6.63,5.37-1.58,4.74-1.58,4.74l3.48,3.63h-18.48l1.42-10.9s3.95-5.69,8.69-5.37Z"/>
    </g>
    <g>
      <path class="cls-1" d="m1092.54,891.56s13.27-19.9,16.27-20.22c3-.32,9.32,2.21,11.69,6.32s4.58,12.16,4.74,12.64c.16.47.79.79,4.42,6.63,3.63,5.84,3.48,9.16,3.48,9.16h-51.34s1.11-5.21,3-8.21c1.9-3,6.32-4.11,6.32-4.11l1.42-2.21Z"/>
      <path class="cls-11" d="m1112.91,905.78s-1.42-3.48-1.58-3.95c-.16-.47-.16-5.05-.63-6.95-.47-1.9-4.42-7.74-4.42-7.74l2.84-8.21-1.42-1.11,2.37-5.84-1.33-.61c-3.11.56-16.21,20.2-16.21,20.2l-1.42,2.21s-4.42,1.11-6.32,4.11c-1.62,2.57-2.66,6.74-2.93,7.9h31.05Z"/>
    </g>
  </g>
  <g>
    <g>
      <path class="cls-1" d="m1555.55,970.63s10-9.04,18.57-9.04,34.76,12.59,34.76,12.59c0,0,10.48,16.14,11.43,17.11.95.97,13.81,6.46,14.76,8.72.95,2.26,2.86,9.68,2.86,9.68h-80l-14.76-38.73,12.38-.32Z"/>
      <path class="cls-11" d="m1574.12,961.59l-.48,7.62s20.48,11.9,20,16.19c-.48,4.29-4.76,14.29-4.76,14.29l10.48,10.95h-55.71l4.29-32.86s11.9-17.14,26.19-16.19Z"/>
    </g>
    <g>
      <path class="cls-1" d="m1451.26,965.88s40-60,49.05-60.95c9.05-.95,28.1,6.67,35.24,19.05,7.14,12.38,13.81,36.67,14.29,38.1.48,1.43,2.38,2.38,13.33,20,10.95,17.62,10.48,27.62,10.48,27.62h-154.76s3.33-15.71,9.05-24.76c5.71-9.05,19.05-12.38,19.05-12.38l4.29-6.67Z"/>
      <path class="cls-11" d="m1512.69,1008.73s-4.29-10.48-4.76-11.9c-.48-1.43-.48-15.24-1.91-20.95-1.43-5.71-13.33-23.33-13.33-23.33l8.57-24.76-4.29-3.33,7.14-17.62-4-1.85c-9.38,1.68-48.86,60.9-48.86,60.9l-4.29,6.67s-13.33,3.33-19.05,12.38c-4.89,7.74-8.02,20.32-8.83,23.81h93.59Z"/>
    </g>
  </g>
  <text class="cls-10" transform="translate(456.87 910.92)"><tspan x="0" y="0">404</tspan></text>
  <g>
    <path class="cls-2" d="m1793.57,698.91c-169.36,111.02-503.83,186.58-888.78,186.58S164.89,805.23.89,688.6v446.45h1792.68v-436.13Z"/>
    <path class="cls-8" d="m1756.78,721.06c-178.27,98.81-493.21,164.44-851.99,164.44-396.76,0-739.91-80.27-903.9-196.9"/>
    <path class="cls-8" d="m1794.36,698.41c-7.63,5.02-15.6,9.98-23.9,14.85"/>
  </g>
  <g>
    <g>
      <path class="cls-9" d="m1685.45,673.04c0,65.49-36.72,70.43-82.02,70.43s-82.02-4.94-82.02-70.43,36.72-202.38,82.02-202.38,82.02,136.89,82.02,202.38Z"/>
      <polygon class="cls-11" points="1631.16 702.75 1617.59 703.69 1652.93 679.87 1627.69 692.62 1631.16 682.66 1619.62 696.7 1606.09 703.55 1605.01 656.52 1612.18 639.12 1604.84 648.9 1604.22 621.63 1626.69 591.66 1604.06 614.84 1602.69 554.82 1601.48 593.23 1587.06 577.15 1601.25 600.61 1599.33 661.46 1586.77 653.25 1575.34 632.97 1579.92 648.77 1557.47 634.09 1599.06 669.96 1592.76 869.67 1609.88 869.67 1606.27 711.33 1610.22 708.66 1631.16 702.75"/>
    </g>
    <path class="cls-11" d="m1597.9,871.43s-30.27-31.37-21.78-30.42c8.5.94,24.4,24.4,24.4,24.4,0,0,.22-51.71,7.77-40.38,7.55,11.33-1.73,40.59-1.73,40.59,0,0,21.59-33.68,21.54-28.18-.15,17.02-16.64,30.33-16.64,30.33,0,0,34.57-25.61,28.91-15.23-5.66,10.39-27.77,20.2-27.77,20.2,0,0,39.86-8.04,25.69-2.38-14.16,5.67-27.64,9.55-27.64,9.55h-11.01s-37.64-18.88-23.47-16.05c14.16,2.83,21.72,7.55,21.72,7.55Z"/>
  </g>
  <g>
    <path class="cls-11" d="m147.65,832.48s-26.18-27.13-18.84-26.31c7.35.82,21.1,21.1,21.1,21.1,0,0,.19-44.72,6.72-34.92,6.53,9.8-1.49,35.11-1.49,35.11,0,0,18.68-29.13,18.63-24.38-.13,14.72-14.39,26.24-14.39,26.24,0,0,29.9-22.15,25-13.17-4.9,8.98-24.02,17.47-24.02,17.47,0,0,34.47-6.95,22.22-2.05-12.25,4.9-23.9,8.26-23.9,8.26h-9.52s-32.55-16.33-20.3-13.88c12.25,2.45,18.78,6.53,18.78,6.53Z"/>
    <g>
      <path class="cls-9" d="m242.29,637.34c0,65.56-36.76,70.51-82.11,70.51s-82.11-4.95-82.11-70.51,36.76-202.6,82.11-202.6,82.11,137.04,82.11,202.6Z"/>
      <polygon class="cls-11" points="187.94 667.09 174.36 668.02 209.74 644.17 184.47 656.95 187.94 646.97 176.39 661.03 162.84 667.88 161.77 620.8 168.94 603.38 161.59 613.18 160.97 585.88 183.47 555.88 160.81 579.07 159.44 518.99 158.23 557.45 143.79 541.35 158 564.83 156.08 625.75 143.51 617.53 132.06 597.23 136.65 613.04 114.18 598.35 155.81 634.26 149.5 834.18 166.64 834.18 163.02 675.67 166.98 673 187.94 667.09"/>
    </g>
  </g>
  <path class="cls-11" d="m434.32,900.64s-26.18-27.13-18.83-26.31c7.35.82,21.1,21.1,21.1,21.1,0,0,.19-44.72,6.72-34.92,6.53,9.8-1.49,35.11-1.49,35.11,0,0,18.68-29.13,18.63-24.38-.13,14.72-14.39,26.24-14.39,26.24,0,0,29.9-22.15,25.01-13.17-4.9,8.98-24.02,17.47-24.02,17.47,0,0,34.47-6.95,22.22-2.05-12.25,4.9-23.9,8.26-23.9,8.26h-9.52s-32.55-16.33-20.3-13.88c12.25,2.45,18.78,6.53,18.78,6.53Z"/>
  <path class="cls-11" d="m573.29,960.09s-26.18-27.13-18.84-26.31c7.35.82,21.1,21.1,21.1,21.1,0,0,.19-44.72,6.72-34.92,6.53,9.8-1.49,35.11-1.49,35.11,0,0,18.68-29.13,18.63-24.38-.13,14.72-14.39,26.24-14.39,26.24,0,0,29.9-22.15,25-13.17-4.9,8.98-24.02,17.47-24.02,17.47,0,0,34.47-6.95,22.22-2.05-12.25,4.9-23.9,8.26-23.9,8.26h-9.52s-32.55-16.33-20.3-13.88c12.25,2.45,18.78,6.53,18.78,6.53Z"/>
  <path class="cls-11" d="m946.07,920.17s-18.89-19.57-13.59-18.98c5.3.59,15.22,15.22,15.22,15.22,0,0,.14-32.26,4.85-25.19,4.71,7.07-1.08,25.33-1.08,25.33,0,0,13.47-21.02,13.44-17.58-.09,10.62-10.38,18.92-10.38,18.92,0,0,21.57-15.98,18.04-9.5-3.53,6.48-17.33,12.6-17.33,12.6,0,0,24.87-5.02,16.03-1.48-8.84,3.53-17.24,5.96-17.24,5.96h-6.87s-23.48-11.78-14.65-10.01c8.84,1.77,13.55,4.71,13.55,4.71Z"/>
  <path class="cls-11" d="m1679.23,873.35s-14.7-15.23-10.57-14.77c4.13.46,11.85,11.85,11.85,11.85,0,0,.11-25.11,3.77-19.6,3.67,5.5-.84,19.71-.84,19.71,0,0,10.48-16.36,10.46-13.68-.07,8.26-8.08,14.73-8.08,14.73,0,0,16.79-12.44,14.04-7.39-2.75,5.04-13.48,9.81-13.48,9.81,0,0,19.35-3.9,12.48-1.15-6.88,2.75-13.42,4.64-13.42,4.64h-5.35s-18.27-9.17-11.4-7.79c6.88,1.38,10.54,3.67,10.54,3.67Z"/>
  <path class="cls-9" d="m689.51,920.28s-26.18-27.13-18.83-26.31c7.35.82,21.1,21.1,21.1,21.1,0,0,.19-44.72,6.72-34.92,6.53,9.8-1.49,35.11-1.49,35.11,0,0,18.68-29.13,18.63-24.38-.13,14.72-14.39,26.24-14.39,26.24,0,0,29.9-22.15,25.01-13.17-4.9,8.98-24.02,17.47-24.02,17.47,0,0,34.47-6.95,22.22-2.05-12.25,4.9-23.9,8.26-23.9,8.26h-9.52s-32.55-16.33-20.3-13.88c12.25,2.45,18.78,6.53,18.78,6.53Z"/>
  <path class="cls-9" d="m500.56,902.25s-17.56-18.19-12.63-17.65c4.93.55,14.15,14.15,14.15,14.15,0,0,.13-29.99,4.51-23.42,4.38,6.57-1,23.54-1,23.54,0,0,12.52-19.54,12.5-16.35-.09,9.87-9.65,17.59-9.65,17.59,0,0,20.05-14.85,16.77-8.83-3.29,6.02-16.11,11.72-16.11,11.72,0,0,23.12-4.66,14.9-1.38-8.21,3.29-16.03,5.54-16.03,5.54h-6.39s-21.83-10.95-13.61-9.31c8.21,1.64,12.59,4.38,12.59,4.38Z"/>
  <path class="cls-9" d="m281.15,974.11s-17.56-18.19-12.63-17.65c4.93.55,14.15,14.15,14.15,14.15,0,0,.13-29.99,4.51-23.42s-1,23.54-1,23.54c0,0,12.52-19.54,12.5-16.35-.09,9.87-9.65,17.59-9.65,17.59,0,0,20.05-14.85,16.77-8.83-3.29,6.02-16.11,11.72-16.11,11.72,0,0,23.12-4.66,14.9-1.38-8.21,3.29-16.03,5.54-16.03,5.54h-6.39s-21.83-10.95-13.61-9.31c8.21,1.64,12.59,4.38,12.59,4.38Z"/>
  <path class="cls-9" d="m868.58,977.64s-17.56-18.19-12.63-17.65c4.93.55,14.15,14.15,14.15,14.15,0,0,.13-29.99,4.51-23.42,4.38,6.57-1,23.54-1,23.54,0,0,12.52-19.54,12.5-16.35-.09,9.87-9.65,17.59-9.65,17.59,0,0,20.05-14.85,16.77-8.83-3.29,6.02-16.11,11.72-16.11,11.72,0,0,23.12-4.66,14.9-1.38-8.21,3.29-16.03,5.54-16.03,5.54h-6.39s-21.83-10.95-13.61-9.31c8.21,1.64,12.59,4.38,12.59,4.38Z"/>
  <path class="cls-9" d="m1153.46,978.59s-17.56-18.19-12.63-17.65c4.93.55,14.15,14.15,14.15,14.15,0,0,.13-29.99,4.51-23.42,4.38,6.57-1,23.54-1,23.54,0,0,12.52-19.54,12.5-16.35-.09,9.87-9.65,17.59-9.65,17.59,0,0,20.05-14.85,16.77-8.83-3.29,6.02-16.11,11.72-16.11,11.72,0,0,23.12-4.66,14.9-1.38-8.21,3.29-16.03,5.54-16.03,5.54h-6.39s-21.83-10.95-13.61-9.31c8.21,1.64,12.59,4.38,12.59,4.38Z"/>
  <path class="cls-9" d="m1683.12,921.68s-26.73-27.7-19.23-26.87c7.5.83,21.55,21.55,21.55,21.55,0,0,.19-45.66,6.86-35.66,6.67,10-1.53,35.85-1.53,35.85,0,0,19.07-29.74,19.02-24.89-.13,15.03-14.69,26.79-14.69,26.79,0,0,30.53-22.62,25.53-13.45-5,9.17-24.52,17.84-24.52,17.84,0,0,35.2-7.1,22.69-2.1-12.51,5-24.41,8.44-24.41,8.44h-9.72s-33.24-16.67-20.73-14.17c12.51,2.5,19.18,6.67,19.18,6.67Z"/>
  <path class="cls-9" d="m90.17,921.68s-26.73-27.7-19.23-26.87c7.5.83,21.55,21.55,21.55,21.55,0,0,.19-45.66,6.86-35.66,6.67,10-1.53,35.85-1.53,35.85,0,0,19.07-29.74,19.02-24.89-.13,15.03-14.69,26.79-14.69,26.79,0,0,30.53-22.62,25.53-13.45-5,9.17-24.52,17.84-24.52,17.84,0,0,35.2-7.1,22.69-2.1-12.51,5-24.41,8.44-24.41,8.44h-9.72s-33.24-16.67-20.73-14.17c12.51,2.5,19.18,6.67,19.18,6.67Z"/>
  <g>
    <path class="cls-9" d="m222.05,882.57s-27.36-47.18-19.56-50.82c7.8-3.64,23.93,32.26,23.93,32.26,0,0-3.12-67.63,4.16-61.39,7.28,6.24,14.05,54.11,14.05,54.11,0,0,14.57-52.02,19.25-41.1,4.68,10.92-3.74,43.98-3.74,43.98,0,0,20.91-39.82,22.99-26.81,2.08,13.01-9.88,34.34-9.88,34.34,0,0,27.57-27.57,29.65-16.65,2.08,10.92-7.28,21.85-7.28,21.85,0,0,36.42-19.77,27.57-8.84-8.84,10.93-21.85,24.97-21.85,24.97,0,0,34.86-12.49,30.69-5.2-4.16,7.28-19.77,15.09-19.77,15.09,0,0,28.61-5.2,25.49-.52-3.12,4.68-10.39,9.28-10.39,9.28h-129.56s-34.34-12.4-20.81-13.44c13.53-1.04,26.01,4.68,26.01,4.68,0,0-42.14-28.61-22.37-30.69,19.77-2.08,35.9,22.89,35.9,22.89,0,0-28.09-39.54-18.21-33.3l23.72,25.33Z"/>
    <path class="cls-7" d="m223.81,895.99s-35.32-36.6-25.41-35.5c9.91,1.1,28.47,28.47,28.47,28.47,0,0,.26-60.33,9.07-47.11,8.81,13.22-2.02,47.36-2.02,47.36,0,0,25.19-39.3,25.14-32.88-.17,19.86-19.41,35.39-19.41,35.39,0,0,40.34-29.88,33.73-17.77-6.61,12.12-32.4,23.57-32.4,23.57,0,0,46.51-9.38,29.98-2.77-16.52,6.61-32.25,11.15-32.25,11.15h-12.85s-43.91-22.03-27.39-18.73c16.52,3.3,25.34,8.81,25.34,8.81Z"/>
  </g>
  <g>
    <path class="cls-9" d="m1387.12,965.58s-51.71-89.18-36.96-96.06c14.75-6.88,45.23,60.97,45.23,60.97,0,0-5.9-127.83,7.87-116.03,13.77,11.8,26.55,102.26,26.55,102.26,0,0,27.53-98.33,36.38-77.68,8.85,20.65-7.07,83.13-7.07,83.13,0,0,39.52-75.27,43.46-50.68,3.93,24.58-18.68,64.9-18.68,64.9,0,0,52.12-52.12,56.05-31.47,3.93,20.65-13.77,41.3-13.77,41.3,0,0,68.83-37.37,52.12-16.72-16.72,20.65-41.3,47.2-41.3,47.2,0,0,65.88-23.6,58.02-9.83-7.87,13.77-37.37,28.52-37.37,28.52,0,0,54.08-9.83,48.18-.98-5.9,8.85-19.63,17.54-19.63,17.54h-244.88s-64.9-23.44-39.33-25.4c25.57-1.97,49.17,8.85,49.17,8.85,0,0-79.65-54.08-42.28-58.02,37.37-3.93,67.85,43.27,67.85,43.27,0,0-53.1-74.73-34.42-62.93l44.83,47.88Z"/>
    <path class="cls-7" d="m1390.45,990.95s-66.77-69.18-48.03-67.09,53.81,53.81,53.81,53.81c0,0,.49-114.03,17.14-89.05s-3.81,89.52-3.81,89.52c0,0,47.62-74.29,47.51-62.15-.33,37.54-36.69,66.89-36.69,66.89,0,0,76.25-56.48,63.76-33.58-12.49,22.9-61.25,44.55-61.25,44.55,0,0,87.9-17.73,56.67-5.24-31.23,12.49-60.95,21.07-60.95,21.07h-24.29s-83-41.64-51.77-35.4c31.23,6.25,47.89,16.66,47.89,16.66Z"/>
  </g>
</svg>