<?xml version="1.0" encoding="UTF-8"?>
<svg id="Layer_1" data-name="Layer 1" xmlns="http://www.w3.org/2000/svg" viewBox="0 0 1783.68 1128.11">
  <defs>
    <style>
      .cls-1, .cls-2, .cls-3, .cls-4, .cls-5, .cls-6 {
        fill: #fff;
      }

      .cls-1, .cls-7, .cls-8 {
        stroke: #263238;
        stroke-miterlimit: 10;
      }

      .cls-9 {
        fill: #9bd2a5;
      }

      .cls-7, .cls-10 {
        fill: #263238;
      }

      .cls-3 {
        opacity: .5;
      }

      .cls-4 {
        opacity: .8;
      }

      .cls-5 {
        opacity: .33;
      }

      .cls-8 {
        fill: none;
      }

      .cls-6 {
        opacity: .31;
      }

      .cls-11 {
        fill: #012a32;
        font-family: Swiss721BT-BlackCondensed, 'Swis721 BlkCn BT';
        font-size: 514.92px;
        font-weight: 800;
      }
    </style>
  </defs>
  <g>
    <path class="cls-9" d="m1741.62,390.74c-20.29-73.06-155.54,6.41-155.54,6.41l35.39-64.2c4.2-6.36,7.98-13.11,11.21-20.34,17.77-39.75,17.54-82.27-.09-119.3-4.85-22.48-19.53-54.61-60.04-89.82C1495.91,36.86,1238.94-8.71,1164.55,1.41c-74.39,10.12,67.63,41.42,67.63,41.42l-11.26-.1c-216.66-22.97-434.66-25.93-650.95-21.45-54.24,1.12-108.64,2.9-161.74,12.06-15.28,2.64-31.71,6.66-40.81,18.99-40.38,54.75,124.79,60.1,150.7,59.05-113.45,14.75-239.5,19.27-345,63.11-14.72,6.12-29.3,13.37-40.4,24.69-11.09,11.32-18.32,27.38-15.82,43.51,7.26,46.85,71.81,60.74,108.41,71.14,0,0-210.4,139.9-185.6,210.92,10.25,29.36,25.53,60.26,53.84,90.68-16.14,20.26-30.35,41.52-41.33,63.99-6.72,13.75-15.52,32.58-8,48.41,38.32,80.65,619.49,357.5,1085.19,278.48,123.71-20.99,246.93-55.7,355.38-117.09,107.92-61.09,217.9-162.01,245.09-289.25.9-4.19,1.55-8.26,2-12.21,16.87-58.65,26.73-135.89,9.75-197.01Z"/>
    <path class="cls-4" d="m1741.62,390.74c-20.29-73.06-155.54,6.41-155.54,6.41l35.39-64.2c4.2-6.36,7.98-13.11,11.21-20.34,17.77-39.75,17.54-82.27-.09-119.3-4.85-22.48-19.53-54.61-60.04-89.82C1495.91,36.86,1238.94-8.71,1164.55,1.41c-74.39,10.12,67.63,41.42,67.63,41.42l-11.26-.1c-216.66-22.97-434.66-25.93-650.95-21.45-54.24,1.12-108.64,2.9-161.74,12.06-15.28,2.64-31.71,6.66-40.81,18.99-40.38,54.75,124.79,60.1,150.7,59.05-113.45,14.75-239.5,19.27-345,63.11-14.72,6.12-29.3,13.37-40.4,24.69-11.09,11.32-15.43,27.19-15.82,43.51-1.02,43.19,68.39,59.23,108.41,71.14,0,0-210.4,139.9-185.6,210.92,10.25,29.36,25.53,60.26,53.84,90.68-16.14,20.26-30.35,41.52-41.33,63.99-6.72,13.75-15.52,32.58-8,48.41,38.32,80.65,619.49,357.5,1085.19,278.48,123.71-20.99,246.93-55.7,355.38-117.09,107.92-61.09,217.9-162.01,245.09-289.25.9-4.19,1.55-8.26,2-12.21,16.87-58.65,26.73-135.89,9.75-197.01Z"/>
  </g>
  <g>
    <path class="cls-8" d="m1365.15,310.91s2.63-7.88,15.76-10.51c13.14-2.63,28.9,11.82,28.9,11.82,0,0,10.51-21.02,21.02-22.33,10.51-1.31,22.33,7.88,22.33,7.88"/>
    <path class="cls-8" d="m1330.99,360.83s2.63-7.88,15.76-10.51c13.14-2.63,28.9,11.82,28.9,11.82,0,0,10.51-21.02,21.02-22.33,10.51-1.31,22.33,7.88,22.33,7.88"/>
    <path class="cls-8" d="m1455.78,361.14s2-6,12-8c10-2,22,9,22,9,0,0,8-16,16-17,8-1,17,6,17,6"/>
    <path class="cls-8" d="m1601.75,414.03s1.31-3.93,7.87-5.25c6.56-1.31,14.43,5.9,14.43,5.9,0,0,5.25-10.49,10.49-11.15,5.25-.66,11.15,3.93,11.15,3.93"/>
  </g>
  <path class="cls-8" d="m902.18,296.99c-13.57-60.99-83.87-106.44-145.14-97.73-15.27,2.17-30.13,7.88-41.6,18.44-15.65,14.4-11.93,30.74-19.68,48.57-2.15,4.95-6.34,9.35-11.67,10.26-15.24,2.61-27.52-12.58-42.94-12.69-11.54-.08-26.29,6.29-32.72,16.25-5.99,9.28-1.82,25.46-12.6,31.62-12.06,6.89-26.73-6.21-39.77-1.47-16.2,5.89-8.84,17.67-14.73,25.04-5.89,7.36-17.67,4.42-33.88,2.95-16.2-1.47-29.46,17.67-29.46,17.67h511.09s4.42-7.36-14.73-36.82c-19.15-29.46-45.66-8.84-57.44-8.84s-14.72-13.24-14.73-13.26Z"/>
  <path class="cls-8" d="m1044.51,199.04c-5.45-24.47-33.65-42.7-58.23-39.21-6.13.87-12.09,3.16-16.69,7.4-6.28,5.78-4.79,12.33-7.9,19.49-.86,1.99-2.54,3.75-4.68,4.12-6.11,1.05-11.04-5.05-17.23-5.09-4.63-.03-10.55,2.52-13.13,6.52-2.4,3.72-.73,10.22-5.06,12.69-4.84,2.76-10.72-2.49-15.95-.59-6.5,2.36-3.55,7.09-5.91,10.05-2.36,2.95-7.09,1.77-13.59,1.18-6.5-.59-11.82,7.09-11.82,7.09h205.04s1.77-2.95-5.91-14.77c-7.68-11.82-18.32-3.55-23.05-3.55s-5.91-5.31-5.91-5.32Z"/>
  <path class="cls-8" d="m1481.95,498.87c-5.45-24.47-33.65-42.7-58.23-39.21-6.13.87-12.09,3.16-16.69,7.4-6.28,5.78-4.79,12.33-7.9,19.49-.86,1.99-2.54,3.75-4.68,4.12-6.11,1.05-11.04-5.05-17.23-5.09-4.63-.03-10.55,2.52-13.13,6.52-2.4,3.72-.73,10.22-5.05,12.69-4.84,2.76-10.72-2.49-15.95-.59-6.5,2.36-3.55,7.09-5.91,10.05-2.36,2.95-7.09,1.77-13.59,1.18-6.5-.59-11.82,7.09-11.82,7.09h205.04s1.77-2.95-5.91-14.77c-7.68-11.82-18.32-3.55-23.05-3.55s-5.91-5.31-5.91-5.32Z"/>
  <path class="cls-8" d="m1153.05,472.1c-8.34-37.47-51.54-65.4-89.19-60.05-9.38,1.33-18.51,4.84-25.56,11.33-9.61,8.85-7.33,18.89-12.09,29.85-1.32,3.04-3.9,5.74-7.17,6.31-9.36,1.61-16.91-7.73-26.39-7.8-7.09-.05-16.15,3.86-20.11,9.99-3.68,5.7-1.12,15.65-7.74,19.43-7.41,4.23-16.42-3.82-24.44-.91-9.96,3.62-5.43,10.86-9.05,15.39-3.62,4.53-10.86,2.72-20.82,1.81-9.96-.9-18.1,10.86-18.1,10.86h314.06s2.72-4.53-9.05-22.63c-11.77-18.1-28.06-5.43-35.3-5.43s-9.05-8.13-9.05-8.15Z"/>
  <path class="cls-10" d="m1226.92,903.86s-18.77-19.45-13.5-18.86c5.27.59,15.13,15.13,15.13,15.13,0,0,.14-32.06,4.82-25.04,4.68,7.03-1.07,25.17-1.07,25.17,0,0,13.39-20.89,13.36-17.47-.09,10.55-10.32,18.81-10.32,18.81,0,0,21.44-15.88,17.93-9.44s-17.22,12.53-17.22,12.53c0,0,24.71-4.99,15.93-1.47-8.78,3.51-17.14,5.92-17.14,5.92h-6.83s-23.34-11.71-14.56-9.95c8.78,1.76,13.47,4.68,13.47,4.68Z"/>
  <path class="cls-10" d="m1474.82,843s-14.61-15.14-10.51-14.68c4.1.46,11.77,11.77,11.77,11.77,0,0,.11-24.95,3.75-19.49,3.64,5.47-.83,19.59-.83,19.59,0,0,10.42-16.26,10.4-13.6-.07,8.21-8.03,14.64-8.03,14.64,0,0,16.69-12.36,13.95-7.35-2.73,5.01-13.4,9.75-13.4,9.75,0,0,19.23-3.88,12.4-1.15-6.83,2.73-13.34,4.61-13.34,4.61h-5.31s-18.16-9.11-11.33-7.75c6.83,1.37,10.48,3.64,10.48,3.64Z"/>
  <path class="cls-10" d="m1704.98,788.7s-14.61-15.14-10.51-14.68c4.1.46,11.77,11.77,11.77,11.77,0,0,.11-24.95,3.75-19.49,3.65,5.47-.83,19.59-.83,19.59,0,0,10.42-16.25,10.4-13.6-.07,8.21-8.03,14.64-8.03,14.64,0,0,16.68-12.36,13.95-7.35-2.73,5.01-13.4,9.75-13.4,9.75,0,0,19.23-3.88,12.4-1.15-6.83,2.73-13.34,4.61-13.34,4.61h-5.31s-18.16-9.11-11.33-7.75,10.48,3.64,10.48,3.64Z"/>
  <path class="cls-9" d="m1411.65,912.72s-17.45-18.08-12.55-17.54c4.9.54,14.07,14.06,14.07,14.06,0,0,.13-29.81,4.48-23.28s-1,23.4-1,23.4c0,0,12.45-19.42,12.42-16.25-.09,9.81-9.59,17.49-9.59,17.49,0,0,19.93-14.76,16.67-8.78-3.27,5.99-16.01,11.64-16.01,11.64,0,0,22.98-4.63,14.81-1.37-8.16,3.27-15.93,5.51-15.93,5.51h-6.35s-21.7-10.89-13.53-9.25c8.16,1.63,12.52,4.35,12.52,4.35Z"/>
  <g>
    <polyline class="cls-8" points="1066.32 834.28 911.93 661.19 878.11 688.24 708.85 433.4 561.5 466.23 517.44 383.92 474.61 381.67 393.46 221.62 272.08 332.37 213.55 311.47 .36 528.84"/>
    <line class="cls-8" x1="1095.27" y1="866.74" x2="1079.08" y2="848.59"/>
    <line class="cls-8" x1="482.38" y1="487.39" x2="469.62" y2="490.85"/>
    <line class="cls-8" x1="561.2" y1="466.05" x2="496.75" y2="483.5"/>
    <polyline class="cls-8" points="318.06 391.96 354.15 338.68 351.71 320.41 393.13 236.34"/>
    <line class="cls-8" x1="302.97" y1="414.22" x2="312.03" y2="400.86"/>
    <line class="cls-8" x1="246.97" y1="445.74" x2="188.45" y2="525.09"/>
    <polyline class="cls-8" points="216.47 320.41 231.09 353.3 263.99 380.11 260.33 427.62 252.36 438.43"/>
    <polyline class="cls-8" points="517.44 383.92 486.95 413 475.98 394.73"/>
    <polyline class="cls-8" points="1748.89 709.57 1511.98 542.46 1440.07 644 1351.22 614.38 1213.73 806.87 1124.89 787.83 1080.47 825.91"/>
    <polyline class="cls-8" points="1511.98 542.46 1483.82 666.28 1450.6 651.75"/>
    <polyline class="cls-8" points="1351.99 621.65 1282.44 824.07 1234.68 815.76"/>
  </g>
  <g>
    <path class="cls-9" d="m1348.77,607.18c-61.65,0-111.63,49.64-111.63,110.87,0,28.39,10.75,54.28,28.42,73.89,8.08-1.17,22.82-1.98,39.1,3.56,21.58,7.34,35.03,19.37,37.97,22.18h10c2.94-2.81,16.39-14.84,37.97-22.18,17.73-6.03,33.63-4.54,41.1-3.25,17.84-19.65,28.7-45.67,28.7-74.21,0-61.23-49.98-110.87-111.63-110.87Z"/>
    <path class="cls-10" d="m1400.73,762.52c-3.43,1.66-6.84,3.38-10.2,5.17-3.36,1.84-6.66,3.83-9.75,6.02-1.17.81-2.31,1.64-3.45,2.48l18.29-34.06-25.09,39.29c-2.54,2.05-5.04,4.13-7.49,6.26-4.05,3.53-7.99,7.12-11.85,10.83l-1.27-36.96,26.25-39.97-26.44,34.38-1.14-33.08-1.89,37.01h0s0,.01,0,.01l-1.89,37.09c-3.35-3.17-6.76-6.27-10.26-9.32-2.75-2.39-5.55-4.74-8.42-7.02l-23.74-40.54,17.44,35.76c-1-.73-2-1.46-3.02-2.17-3.09-2.18-6.39-4.18-9.75-6.02-3.36-1.79-6.76-3.51-10.2-5.17-6.88-3.3-13.89-6.39-21.12-8.94,7.03,2.98,13.77,6.47,20.36,10.15,3.29,1.85,6.53,3.76,9.73,5.73,3.14,1.99,6.17,4.09,9.04,6.42,5.78,4.58,11.19,9.58,16.39,14.74,4.54,4.51,8.97,9.18,13.18,13.92l-2.4,47.08h11l-1.56-45.17c4.71-5.39,9.73-10.71,14.88-15.83,5.2-5.16,10.6-10.16,16.39-14.74,2.87-2.32,5.9-4.43,9.04-6.42,3.2-1.97,6.44-3.88,9.73-5.73,6.58-3.69,13.32-7.18,20.36-10.15-7.24,2.55-14.24,5.64-21.12,8.94Z"/>
  </g>
  <g>
    <path class="cls-9" d="m491.7,759.31c0,31.86-17.86,34.26-39.9,34.26s-39.9-2.41-39.9-34.26,17.86-98.44,39.9-98.44,39.9,66.59,39.9,98.44Z"/>
    <polygon class="cls-10" points="465.29 773.77 458.7 774.22 475.88 762.63 463.61 768.84 465.29 763.99 459.68 770.82 453.1 774.15 452.58 751.28 456.06 742.81 452.49 747.57 452.19 734.31 463.12 719.73 452.11 731 451.45 701.81 450.86 720.49 443.84 712.67 450.74 724.08 449.81 753.68 443.7 749.69 438.14 739.82 440.37 747.51 429.45 740.37 449.68 757.81 446.62 854.96 454.95 854.96 453.19 777.94 455.11 776.64 465.29 773.77"/>
  </g>
  <g>
    <path class="cls-9" d="m1564.83,649.61c0,62.24-34.9,66.94-77.96,66.94s-77.96-4.7-77.96-66.94,34.9-192.36,77.96-192.36,77.96,130.12,77.96,192.36Z"/>
    <path class="cls-6" d="m1564.83,649.61c0,62.24-34.9,66.94-77.96,66.94s-77.96-4.7-77.96-66.94,34.9-192.36,77.96-192.36,77.96,130.12,77.96,192.36Z"/>
    <polygon class="cls-10" points="1513.23 677.85 1500.33 678.74 1533.92 656.1 1509.93 668.22 1513.23 658.75 1502.26 672.1 1489.4 678.6 1488.38 633.91 1495.19 617.36 1488.21 626.67 1487.62 600.75 1508.98 572.26 1487.47 594.29 1486.17 537.24 1485.02 573.75 1471.31 558.47 1484.79 580.77 1482.97 638.6 1471.04 630.8 1460.17 611.53 1464.53 626.54 1443.19 612.59 1482.72 646.68 1476.73 836.5 1493.01 836.5 1489.57 686 1493.33 683.46 1513.23 677.85"/>
  </g>
  <g>
    <path class="cls-9" d="m1731.71,674.11c0,31.86-17.86,34.26-39.9,34.26s-39.9-2.41-39.9-34.26,17.86-98.44,39.9-98.44,39.9,66.59,39.9,98.44Z"/>
    <path class="cls-3" d="m1731.71,674.11c0,31.86-17.86,34.26-39.9,34.26s-39.9-2.41-39.9-34.26,17.86-98.44,39.9-98.44,39.9,66.59,39.9,98.44Z"/>
    <polygon class="cls-10" points="1705.3 688.56 1698.71 689.02 1715.89 677.43 1703.62 683.63 1705.3 678.79 1699.69 685.62 1693.11 688.95 1692.59 666.07 1696.07 657.61 1692.5 662.37 1692.2 649.1 1703.13 634.52 1692.12 645.8 1691.46 616.6 1690.87 635.29 1683.85 627.46 1690.75 638.88 1689.82 668.47 1683.71 664.48 1678.15 654.62 1680.38 662.3 1669.46 655.16 1689.69 672.61 1686.63 769.75 1694.96 769.75 1693.2 692.73 1695.12 691.43 1705.3 688.56"/>
  </g>
  <g>
    <path class="cls-9" d="m105.4,647.17c0,31.86-17.86,34.26-39.9,34.26s-39.9-2.41-39.9-34.26,17.86-98.44,39.9-98.44,39.9,66.59,39.9,98.44Z"/>
    <path class="cls-3" d="m105.4,647.17c0,31.86-17.86,34.26-39.9,34.26s-39.9-2.41-39.9-34.26,17.86-98.44,39.9-98.44,39.9,66.59,39.9,98.44Z"/>
    <polygon class="cls-10" points="78.99 661.63 72.39 662.08 89.58 650.49 77.31 656.7 78.99 651.85 73.38 658.68 66.8 662.01 66.28 639.13 69.76 630.67 66.19 635.43 65.89 622.17 76.82 607.59 65.81 618.86 65.14 589.67 64.56 608.35 57.54 600.53 64.44 611.94 63.51 641.54 57.4 637.54 51.84 627.68 54.07 635.37 43.15 628.23 63.38 645.67 60.32 742.82 68.64 742.82 66.88 665.79 68.81 664.5 78.99 661.63"/>
  </g>
  <g>
    <path class="cls-9" d="m303.12,574.93c-61.65,0-111.63,49.64-111.63,110.87,0,28.39,10.75,54.28,28.42,73.89,8.08-1.17,22.82-1.98,39.1,3.56,21.58,7.34,35.03,19.37,37.97,22.18h10c2.94-2.81,16.39-14.84,37.97-22.18,17.73-6.03,33.63-4.54,41.1-3.25,17.84-19.65,28.7-45.67,28.7-74.21,0-61.23-49.98-110.87-111.63-110.87Z"/>
    <path class="cls-5" d="m303.12,574.93c-61.65,0-111.63,49.64-111.63,110.87,0,28.39,10.75,54.28,28.42,73.89,8.08-1.17,22.82-1.98,39.1,3.56,21.58,7.34,35.03,19.37,37.97,22.18h10c2.94-2.81,16.39-14.84,37.97-22.18,17.73-6.03,33.63-4.54,41.1-3.25,17.84-19.65,28.7-45.67,28.7-74.21,0-61.23-49.98-110.87-111.63-110.87Z"/>
    <path class="cls-10" d="m355.08,730.27c-3.43,1.66-6.84,3.38-10.2,5.17-3.36,1.84-6.66,3.83-9.75,6.02-1.17.81-2.31,1.64-3.45,2.48l18.29-34.06-25.09,39.29c-2.54,2.05-5.04,4.13-7.49,6.26-4.05,3.53-7.99,7.12-11.85,10.83l-1.27-36.96,26.25-39.97-26.44,34.38-1.14-33.08-1.89,37.01h0s0,.01,0,.01l-1.89,37.09c-3.35-3.17-6.76-6.27-10.26-9.32-2.75-2.39-5.55-4.74-8.42-7.02l-23.74-40.54,17.44,35.76c-1-.73-2-1.46-3.02-2.17-3.09-2.18-6.39-4.18-9.75-6.02-3.36-1.79-6.76-3.51-10.2-5.17-6.88-3.3-13.89-6.39-21.12-8.94,7.03,2.98,13.77,6.47,20.36,10.15,3.29,1.85,6.53,3.76,9.73,5.73,3.14,1.99,6.17,4.09,9.04,6.42,5.78,4.58,11.19,9.58,16.39,14.74,4.54,4.51,8.97,9.18,13.18,13.92l-2.4,47.08h11l-1.56-45.17c4.71-5.39,9.73-10.71,14.88-15.83,5.2-5.16,10.6-10.16,16.39-14.74,2.87-2.32,5.9-4.43,9.04-6.42,3.2-1.97,6.44-3.88,9.73-5.73,6.58-3.69,13.32-7.18,20.36-10.15-7.24,2.55-14.24,5.64-21.12,8.94Z"/>
  </g>
  <text class="cls-11" transform="translate(496.69 899.11)"><tspan x="0" y="0">500</tspan></text>
  <g>
    <path class="cls-2" d="m1782.62,694.64c-168.32,110.34-500.75,185.44-883.35,185.44S163.89,800.31.89,684.39v443.72h1781.73v-433.47Z"/>
    <path class="cls-8" d="m1746.06,716.65c-177.19,98.2-490.2,163.43-846.78,163.43-394.33,0-735.39-79.78-898.38-195.7"/>
    <path class="cls-8" d="m1783.4,694.14c-7.59,4.99-15.51,9.91-23.76,14.76"/>
  </g>
  <g>
    <g>
      <path class="cls-9" d="m1675.16,668.93c0,65.09-36.5,70-81.52,70s-81.52-4.91-81.52-70,36.5-201.15,81.52-201.15,81.52,136.06,81.52,201.15Z"/>
      <polygon class="cls-10" points="1621.2 698.46 1607.72 699.39 1642.84 675.71 1617.75 688.39 1621.2 678.49 1609.73 692.45 1596.28 699.25 1595.21 652.51 1602.34 635.21 1595.04 644.94 1594.42 617.84 1616.76 588.05 1594.27 611.08 1592.9 551.43 1591.7 589.61 1577.37 573.63 1591.47 596.95 1589.56 657.42 1577.08 649.26 1565.72 629.11 1570.28 644.81 1547.96 630.22 1589.3 665.87 1583.04 864.36 1600.05 864.36 1596.46 706.98 1600.39 704.33 1621.2 698.46"/>
    </g>
    <path class="cls-10" d="m1588.14,866.11s-30.09-31.18-21.64-30.24c8.45.94,24.25,24.25,24.25,24.25,0,0,.22-51.39,7.73-40.13,7.51,11.26-1.72,40.35-1.72,40.35,0,0,21.46-33.48,21.41-28.01-.15,16.92-16.53,30.15-16.53,30.15,0,0,34.36-25.46,28.73-15.13-5.63,10.32-27.6,20.08-27.6,20.08,0,0,39.61-7.99,25.54-2.36-14.08,5.63-27.47,9.5-27.47,9.5h-10.94s-37.41-18.77-23.33-15.95c14.08,2.82,21.58,7.51,21.58,7.51Z"/>
  </g>
  <g>
    <path class="cls-10" d="m146.75,827.4s-26.02-26.96-18.72-26.15c7.3.81,20.97,20.97,20.97,20.97,0,0,.19-44.45,6.68-34.71,6.49,9.74-1.49,34.9-1.49,34.9,0,0,18.56-28.96,18.52-24.23-.13,14.63-14.3,26.08-14.3,26.08,0,0,29.72-22.02,24.85-13.09-4.87,8.93-23.87,17.37-23.87,17.37,0,0,34.26-6.91,22.09-2.04-12.17,4.87-23.76,8.21-23.76,8.21h-9.47s-32.35-16.23-20.18-13.8c12.17,2.44,18.67,6.49,18.67,6.49Z"/>
    <g>
      <path class="cls-9" d="m240.81,633.45c0,65.16-36.54,70.08-81.61,70.08s-81.61-4.92-81.61-70.08,36.54-201.36,81.61-201.36,81.61,136.21,81.61,201.36Z"/>
      <polygon class="cls-10" points="186.8 663.01 173.3 663.94 208.46 640.24 183.35 652.93 186.8 643.02 175.32 656.99 161.85 663.8 160.78 617.01 167.91 599.69 160.61 609.43 159.99 582.3 182.35 552.48 159.83 575.54 158.47 515.82 157.26 554.04 142.92 538.04 157.03 561.39 155.12 621.92 142.63 613.76 131.25 593.58 135.82 609.3 113.48 594.7 154.86 630.38 148.59 829.09 165.63 829.09 162.03 671.54 165.96 668.89 186.8 663.01"/>
    </g>
  </g>
  <path class="cls-10" d="m431.67,895.14s-26.02-26.96-18.72-26.15c7.3.81,20.97,20.97,20.97,20.97,0,0,.19-44.45,6.68-34.71,6.49,9.74-1.48,34.9-1.48,34.9,0,0,18.56-28.96,18.52-24.23-.13,14.63-14.3,26.08-14.3,26.08,0,0,29.72-22.02,24.85-13.09-4.87,8.93-23.87,17.37-23.87,17.37,0,0,34.26-6.91,22.09-2.04-12.17,4.87-23.76,8.21-23.76,8.21h-9.47s-32.35-16.23-20.18-13.8c12.17,2.43,18.67,6.49,18.67,6.49Z"/>
  <path class="cls-10" d="m569.8,954.23s-26.02-26.96-18.72-26.15c7.3.81,20.97,20.97,20.97,20.97,0,0,.19-44.45,6.68-34.71,6.49,9.74-1.49,34.9-1.49,34.9,0,0,18.56-28.96,18.52-24.23-.13,14.63-14.3,26.08-14.3,26.08,0,0,29.72-22.02,24.85-13.09-4.87,8.93-23.87,17.37-23.87,17.37,0,0,34.26-6.91,22.09-2.04-12.17,4.87-23.76,8.21-23.76,8.21h-9.47s-32.35-16.23-20.18-13.8c12.17,2.43,18.67,6.49,18.67,6.49Z"/>
  <path class="cls-10" d="m940.29,914.55s-18.77-19.45-13.5-18.86c5.27.59,15.13,15.13,15.13,15.13,0,0,.14-32.06,4.82-25.04,4.68,7.03-1.07,25.17-1.07,25.17,0,0,13.39-20.89,13.36-17.47-.09,10.55-10.32,18.81-10.32,18.81,0,0,21.44-15.88,17.93-9.44-3.51,6.44-17.22,12.53-17.22,12.53,0,0,24.71-4.99,15.93-1.47-8.78,3.51-17.14,5.92-17.14,5.92h-6.83s-23.34-11.71-14.56-9.95c8.78,1.76,13.47,4.68,13.47,4.68Z"/>
  <path class="cls-10" d="m1668.98,868.01s-14.61-15.14-10.51-14.68,11.77,11.77,11.77,11.77c0,0,.11-24.95,3.75-19.49,3.64,5.47-.83,19.59-.83,19.59,0,0,10.42-16.26,10.4-13.6-.07,8.21-8.03,14.64-8.03,14.64,0,0,16.68-12.36,13.95-7.35-2.73,5.01-13.4,9.75-13.4,9.75,0,0,19.23-3.88,12.4-1.15-6.83,2.73-13.34,4.61-13.34,4.61h-5.31s-18.16-9.11-11.33-7.75c6.83,1.37,10.48,3.64,10.48,3.64Z"/>
  <path class="cls-9" d="m685.3,914.66s-26.02-26.96-18.72-26.15c7.3.81,20.97,20.97,20.97,20.97,0,0,.19-44.45,6.68-34.71,6.49,9.74-1.49,34.9-1.49,34.9,0,0,18.56-28.96,18.52-24.23-.13,14.63-14.3,26.08-14.3,26.08,0,0,29.72-22.02,24.85-13.09-4.87,8.93-23.87,17.37-23.87,17.37,0,0,34.26-6.91,22.09-2.04-12.17,4.87-23.76,8.21-23.76,8.21h-9.47s-32.35-16.23-20.18-13.8c12.17,2.43,18.67,6.49,18.67,6.49Z"/>
  <path class="cls-9" d="m497.5,896.74s-17.45-18.08-12.55-17.54c4.9.54,14.06,14.06,14.06,14.06,0,0,.13-29.81,4.48-23.28,4.35,6.53-1,23.4-1,23.4,0,0,12.45-19.42,12.42-16.25-.09,9.81-9.59,17.49-9.59,17.49,0,0,19.93-14.76,16.67-8.78-3.27,5.99-16.01,11.64-16.01,11.64,0,0,22.98-4.63,14.81-1.37-8.16,3.27-15.93,5.51-15.93,5.51h-6.35s-21.7-10.88-13.53-9.25c8.16,1.63,12.52,4.35,12.52,4.35Z"/>
  <path class="cls-9" d="m279.44,968.16s-17.45-18.08-12.55-17.54c4.9.54,14.07,14.07,14.07,14.07,0,0,.13-29.81,4.48-23.28s-1,23.4-1,23.4c0,0,12.45-19.42,12.42-16.25-.09,9.81-9.59,17.49-9.59,17.49,0,0,19.93-14.76,16.67-8.78-3.27,5.99-16.01,11.64-16.01,11.64,0,0,22.98-4.63,14.81-1.37-8.16,3.27-15.93,5.51-15.93,5.51h-6.35s-21.7-10.89-13.53-9.25c8.16,1.63,12.52,4.35,12.52,4.35Z"/>
  <path class="cls-9" d="m863.28,971.67s-17.45-18.08-12.55-17.54c4.9.54,14.06,14.06,14.06,14.06,0,0,.13-29.81,4.48-23.28,4.35,6.53-1,23.4-1,23.4,0,0,12.45-19.42,12.42-16.25-.09,9.81-9.59,17.49-9.59,17.49,0,0,19.93-14.76,16.66-8.78-3.27,5.99-16.01,11.65-16.01,11.65,0,0,22.98-4.63,14.81-1.37-8.16,3.27-15.93,5.51-15.93,5.51h-6.35s-21.7-10.88-13.53-9.25c8.16,1.63,12.52,4.35,12.52,4.35Z"/>
  <path class="cls-9" d="m1146.42,972.61s-17.45-18.08-12.55-17.54c4.9.54,14.06,14.07,14.06,14.07,0,0,.13-29.81,4.48-23.28,4.35,6.53-1,23.4-1,23.4,0,0,12.45-19.42,12.42-16.25-.09,9.81-9.59,17.49-9.59,17.49,0,0,19.93-14.76,16.67-8.78-3.27,5.99-16.01,11.64-16.01,11.64,0,0,22.98-4.63,14.81-1.37-8.16,3.27-15.93,5.51-15.93,5.51h-6.35s-21.7-10.89-13.53-9.25c8.16,1.63,12.52,4.35,12.52,4.35Z"/>
  <path class="cls-9" d="m1672.84,916.05s-26.57-27.53-19.11-26.7c7.46.83,21.41,21.41,21.41,21.41,0,0,.19-45.38,6.82-35.44,6.63,9.94-1.52,35.63-1.52,35.63,0,0,18.95-29.56,18.91-24.73-.13,14.94-14.6,26.62-14.6,26.62,0,0,30.35-22.48,25.37-13.36-4.97,9.11-24.37,17.73-24.37,17.73,0,0,34.98-7.06,22.55-2.08-12.43,4.97-24.26,8.39-24.26,8.39h-9.66s-33.03-16.57-20.6-14.09c12.43,2.49,19.06,6.63,19.06,6.63Z"/>
  <path class="cls-9" d="m89.62,916.05s-26.57-27.53-19.11-26.7c7.46.83,21.41,21.41,21.41,21.41,0,0,.19-45.38,6.82-35.44,6.63,9.94-1.52,35.63-1.52,35.63,0,0,18.95-29.56,18.91-24.73-.13,14.94-14.6,26.62-14.6,26.62,0,0,30.35-22.48,25.37-13.36-4.97,9.11-24.37,17.73-24.37,17.73,0,0,34.98-7.06,22.55-2.08-12.43,4.97-24.26,8.39-24.26,8.39h-9.66s-33.03-16.57-20.6-14.09c12.43,2.49,19.06,6.63,19.06,6.63Z"/>
  <g>
    <path class="cls-9" d="m220.69,877.18s-27.19-46.89-19.44-50.51c7.76-3.62,23.78,32.06,23.78,32.06,0,0-3.1-67.22,4.14-61.01,7.24,6.2,13.96,53.77,13.96,53.77,0,0,14.48-51.71,19.13-40.85,4.65,10.86-3.72,43.71-3.72,43.71,0,0,20.78-39.58,22.85-26.65,2.07,12.93-9.82,34.13-9.82,34.13,0,0,27.4-27.4,29.47-16.55,2.07,10.86-7.24,21.72-7.24,21.72,0,0,36.19-19.65,27.4-8.79-8.79,10.86-21.72,24.82-21.72,24.82,0,0,34.64-12.41,30.51-5.17-4.14,7.24-19.65,14.99-19.65,14.99,0,0,28.44-5.17,25.34-.52-3.1,4.65-10.32,9.22-10.32,9.22h-128.77s-34.13-12.32-20.68-13.36c13.44-1.03,25.85,4.65,25.85,4.65,0,0-41.88-28.44-22.23-30.51,19.65-2.07,35.68,22.75,35.68,22.75,0,0-27.92-39.3-18.1-33.09l23.57,25.18Z"/>
    <path class="cls-7" d="m222.45,890.52s-35.11-36.38-25.25-35.28c9.85,1.09,28.3,28.3,28.3,28.3,0,0,.26-59.96,9.01-46.82,8.76,13.14-2,47.08-2,47.08,0,0,25.04-39.06,24.98-32.68-.17,19.74-19.29,35.18-19.29,35.18,0,0,40.1-29.7,33.53-17.66-6.57,12.04-32.21,23.43-32.21,23.43,0,0,46.22-9.32,29.8-2.75-16.42,6.57-32.05,11.08-32.05,11.08h-12.77s-43.65-21.9-27.22-18.61c16.42,3.28,25.18,8.76,25.18,8.76Z"/>
  </g>
  <g>
    <path class="cls-9" d="m1378.65,959.68s-51.4-88.63-36.74-95.47c14.66-6.84,44.96,60.59,44.96,60.59,0,0-5.86-127.05,7.82-115.32,13.68,11.73,26.39,101.64,26.39,101.64,0,0,27.36-97.73,36.16-77.21,8.8,20.52-7.03,82.62-7.03,82.62,0,0,39.28-74.81,43.19-50.37,3.91,24.43-18.57,64.5-18.57,64.5,0,0,51.8-51.8,55.71-31.27,3.91,20.52-13.68,41.05-13.68,41.05,0,0,68.41-37.14,51.8-16.61-16.61,20.52-41.05,46.91-41.05,46.91,0,0,65.48-23.46,57.66-9.77-7.82,13.68-37.14,28.34-37.14,28.34,0,0,53.75-9.77,47.89-.98-5.86,8.8-19.51,17.43-19.51,17.43h-243.38s-64.5-23.3-39.09-25.25c25.41-1.95,48.87,8.8,48.87,8.8,0,0-79.16-53.75-42.02-57.66,37.14-3.91,67.43,43,67.43,43,0,0-52.77-74.28-34.21-62.55l44.55,47.58Z"/>
    <path class="cls-7" d="m1381.96,984.9s-66.36-68.75-47.73-66.68c18.63,2.07,53.48,53.48,53.48,53.48,0,0,.48-113.34,17.04-88.5,16.56,24.83-3.79,88.98-3.79,88.98,0,0,47.33-73.83,47.22-61.77-.33,37.31-36.46,66.49-36.46,66.49,0,0,75.78-56.14,63.37-33.37-12.42,22.76-60.87,44.28-60.87,44.28,0,0,87.36-17.62,56.32-5.21-31.04,12.42-60.58,20.94-60.58,20.94h-24.14s-82.5-41.39-51.45-35.18c31.04,6.21,47.6,16.56,47.6,16.56Z"/>
  </g>
  <g>
    <g>
      <path class="cls-1" d="m309.26,879.83s5.26-4.75,9.77-4.75,18.28,6.62,18.28,6.62c0,0,5.51,8.49,6.01,9s7.26,3.39,7.76,4.58c.5,1.19,1.5,5.09,1.5,5.09h-42.07l-7.76-20.37,6.51-.17Z"/>
      <path class="cls-10" d="m319.03,875.08l-.25,4.01s10.77,6.26,10.52,8.51c-.25,2.25-2.5,7.51-2.5,7.51l5.51,5.76h-29.3l2.25-17.28s6.26-9.01,13.77-8.51Z"/>
    </g>
    <g>
      <path class="cls-1" d="m254.42,877.34s21.03-31.55,25.79-32.05c4.76-.5,14.77,3.51,18.53,10.02,3.76,6.51,7.26,19.28,7.51,20.03.25.75,1.25,1.25,7.01,10.52s5.51,14.52,5.51,14.52h-81.38s1.75-8.26,4.76-13.02c3-4.76,10.02-6.51,10.02-6.51l2.25-3.51Z"/>
      <path class="cls-10" d="m286.73,899.87s-2.25-5.51-2.5-6.26c-.25-.75-.25-8.01-1-11.02-.75-3-7.01-12.27-7.01-12.27l4.51-13.02-2.25-1.75,3.76-9.27-2.1-.97c-4.93.89-25.69,32.02-25.69,32.02l-2.25,3.51s-7.01,1.75-10.02,6.51c-2.57,4.07-4.22,10.68-4.64,12.52h49.22Z"/>
    </g>
  </g>
  <g>
    <g>
      <path class="cls-1" d="m1120.25,887.68s3.3-2.98,6.12-2.98,11.46,4.15,11.46,4.15c0,0,3.45,5.32,3.77,5.64.31.32,4.55,2.13,4.87,2.87.31.74.94,3.19.94,3.19h-26.38l-4.87-12.77,4.08-.11Z"/>
      <path class="cls-10" d="m1126.37,884.7l-.16,2.51s6.75,3.93,6.59,5.34-1.57,4.71-1.57,4.71l3.45,3.61h-18.37l1.41-10.83s3.93-5.65,8.64-5.34Z"/>
    </g>
    <g>
      <path class="cls-1" d="m1085.87,886.12s13.19-19.78,16.17-20.1c2.98-.31,9.26,2.2,11.62,6.28,2.36,4.08,4.55,12.09,4.71,12.56.16.47.79.79,4.4,6.59,3.61,5.81,3.45,9.11,3.45,9.11h-51.03s1.1-5.18,2.98-8.16c1.88-2.98,6.28-4.08,6.28-4.08l1.41-2.2Z"/>
      <path class="cls-10" d="m1106.12,900.25s-1.41-3.45-1.57-3.93c-.16-.47-.16-5.02-.63-6.91-.47-1.88-4.4-7.69-4.4-7.69l2.83-8.16-1.41-1.1,2.36-5.81-1.32-.61c-3.09.56-16.11,20.08-16.11,20.08l-1.41,2.2s-4.4,1.1-6.28,4.08c-1.61,2.55-2.65,6.7-2.91,7.85h30.86Z"/>
    </g>
  </g>
  <g>
    <g>
      <path class="cls-1" d="m1546.05,964.7s9.94-8.98,18.46-8.98,34.55,12.51,34.55,12.51c0,0,10.41,16.04,11.36,17,.95.96,13.73,6.42,14.67,8.66.95,2.25,2.84,9.62,2.84,9.62h-79.51l-14.67-38.5,12.31-.32Z"/>
      <path class="cls-10" d="m1564.51,955.72l-.47,7.57s20.35,11.83,19.88,16.09c-.47,4.26-4.73,14.2-4.73,14.2l10.41,10.89h-55.37l4.26-32.66s11.83-17.04,26.03-16.09Z"/>
    </g>
    <g>
      <path class="cls-1" d="m1442.4,959.98s39.76-59.63,48.75-60.58c8.99-.95,27.92,6.63,35.02,18.93,7.1,12.31,13.73,36.44,14.2,37.86.47,1.42,2.37,2.37,13.25,19.88,10.89,17.51,10.41,27.45,10.41,27.45h-153.82s3.31-15.62,8.99-24.61c5.68-8.99,18.93-12.31,18.93-12.31l4.26-6.63Z"/>
      <path class="cls-10" d="m1503.45,1002.57s-4.26-10.41-4.73-11.83c-.47-1.42-.47-15.15-1.89-20.82-1.42-5.68-13.25-23.19-13.25-23.19l8.52-24.61-4.26-3.31,7.1-17.51-3.97-1.84c-9.32,1.67-48.56,60.53-48.56,60.53l-4.26,6.63s-13.25,3.31-18.93,12.31c-4.86,7.69-7.97,20.19-8.78,23.66h93.02Z"/>
    </g>
  </g>
</svg>